<?xml version="1.0" encoding="UTF-8"?>
<svg width="24px" height="24px" viewBox="0 0 24 24" version="1.1" xmlns="http://www.w3.org/2000/svg">
    <g stroke="none" stroke-width="1" fill="none" fill-rule="evenodd">
        <path d="M21.5,9.5 L18.5,12.5 L15.5,9.5 L14,11 L18.5,15.5 L23,11 L21.5,9.5 Z M17.71,7.7 C18.11,7.89 18.54,8 19,8 C20.66,8 22,6.66 22,5 C22,3.34 20.66,2 19,2 C17.34,2 16,3.34 16,5 C16,5.46 16.11,5.89 16.3,6.29 L13,9.59 L9.71,6.3 C10.11,6.11 10.54,6 11,6 C12.66,6 14,4.66 14,3 C14,1.34 12.66,0 11,0 C9.34,0 8,1.34 8,3 C8,3.46 8.11,3.89 8.3,4.29 L4.59,8 L8.3,11.71 C8.11,12.11 8,12.54 8,13 C8,14.66 9.34,16 11,16 C12.66,16 14,14.66 14,13 C14,12.54 13.89,12.11 13.7,11.71 L17,8.41 L17.71,7.7 Z M19,4 C19.55,4 20,4.45 20,5 C20,5.55 19.55,6 19,6 C18.45,6 18,5.55 18,5 C18,4.45 18.45,4 19,4 Z M11,14 C10.45,14 10,13.55 10,13 C10,12.45 10.45,12 11,12 C11.55,12 12,12.45 12,13 C12,13.55 11.55,14 11,14 Z" fill="currentColor"/>
    </g>
</svg> 