<?xml version="1.0" encoding="UTF-8"?>
<svg width="24px" height="24px" viewBox="0 0 24 24" version="1.1" xmlns="http://www.w3.org/2000/svg">
    <g stroke="none" stroke-width="1" fill="none" fill-rule="evenodd">
        <path d="M23,21.74 L21.29,20.03 L20.03,21.29 L21.74,23 L23,21.74 Z M20,12 L20,8 L16,8 L16,6 L20,6 L20,2 L22,2 L22,6 L26,6 L26,8 L22,8 L22,12 L20,12 Z M10,4 L8,4 L8,6 L10,6 L10,4 Z M4,8 L4,6 L6,6 L6,4 L4,4 L4,2 L2,2 L2,4 L0,4 L0,6 L2,6 L2,8 L0,8 L0,10 L2,10 L2,12 L4,12 L4,10 L6,10 L6,8 L4,8 Z M10,12 L10,10 L8,10 L8,8 L10,8 L10,6 L12,6 L12,8 L14,8 L14,10 L12,10 L12,12 L10,12 Z" fill="#666666"/>
    </g>
</svg> 